<svg height="512pt" viewBox="0 -8 512 512" width="512pt" xmlns="http://www.w3.org/2000/svg" xmlns:xlink="http://www.w3.org/1999/xlink"><linearGradient id="linear0" gradientUnits="userSpaceOnUse" x1="256" x2="256" y1="0" y2="496"><stop offset="0" stop-color="#2af598"/><stop offset="1" stop-color="#009efd"/></linearGradient><path d="m512 345c0-22.398438-14.261719-42.066406-35.492188-48.9375-28-9.0625-93.785156-22.367188-93.785156-22.367188l-51.09375-73.640624c-12.621094-18.207032-33.382812-29.082032-55.539062-29.082032h-131.089844c-27.988281 0-53.382812 17.582032-63.238281 43.765625l-23.445313 60.171875c-32.308594.898438-58.316406 27.457032-58.316406 59.980469v61.109375c0 33.085938 26.914062 60 60 60h18.441406c8.253906 23.277344 30.484375 40 56.558594 40s48.304688-16.722656 56.558594-40h123.882812c8.253906 23.277344 30.484375 40 56.558594 40s48.304688-16.722656 56.558594-40h83.441406zm-213.242188-122.152344 36.105469 52.042969h-102.863281v-63.914063h44.089844c9.042968 0 17.511718 4.433594 22.667968 11.871094zm-179.582031 6.042969c4.003907-10.714844 14.382813-17.914063 25.824219-17.914063h47v63.910157h-90.746094l17.820313-45.738281zm15.824219 227.109375c-11.027344 0-20-8.972656-20-20s8.972656-20 20-20 20 8.972656 20 20-8.972656 20-20 20zm237 0c-11.027344 0-20-8.972656-20-20s8.972656-20 20-20 20 8.972656 20 20-8.972656 20-20 20zm100-40h-43.441406c-8.253906-23.277344-30.484375-40-56.558594-40s-48.304688 16.722656-56.558594 40h-123.882812c-8.253906-23.277344-30.484375-40-56.558594-40s-48.304688 16.722656-56.558594 40h-18.441406c-11.027344 0-20-8.972656-20-20v-61.109375c0-11.03125 8.972656-20 20-20h325.066406c20.398438 4.011719 54.441406 11.242187 79.125 19.230469 4.671875 1.511718 7.808594 5.882812 7.808594 10.878906zm-312-351c0-11.046875-8.953125-20-20-20h-46.839844c8.457032-26.082031 32.976563-45 61.839844-45s53.382812 18.917969 61.839844 45h153v40h-153c-8.457032 26.082031-32.976563 45-61.839844 45s-53.382812-18.917969-61.839844-45h46.839844c11.046875 0 20-8.953125 20-20zm0 0" fill="url(#linear0)"/></svg>